# xmcd CD database file
#
# Track frame offsets:
#	150
#	16677
#	34727
#	52867
#	71270
#	86560
#	103415
#	121942
#	139242
#	157202
#	179632
#	203370
#
# Disc length: 2975 seconds
#
# Revision: 0
# Processed by: cddbd v1.5.2PL0 Copyright (c) Steve Scherf et al.
# Submitted via: CDex 1.60beta1
#
DISCID=9d0b9d0c
DTITLE=Charlie Major - Here And Now
DYEAR=1996
DGENRE=Country
TTITLE0=Someday I'm Gonna Ride in a Cadillac
TTITLE1=Waiting on You
TTITLE2=It Can't Happen to Me
TTITLE3=This Crazy Heart of Mine
TTITLE4=(I Do It) For the Money
TTITLE5=I Can See Forever in Your Eyes 
TTITLE6=Tell Me Something I Don't Know
TTITLE7=Runaway Train
TTITLE8=It's Lonely I Can't Stand
TTITLE9=Solid as a Rock
TTITLE10=Lucky Man
TTITLE11=Remember the Alamo
EXTD=YEAR: 1996
EXTT0=
EXTT1=
EXTT2=
EXTT3=
EXTT4=
EXTT5=
EXTT6=
EXTT7=
EXTT8=
EXTT9=
EXTT10=
EXTT11=
PLAYORDER=
